<svg xmlns="http://www.w3.org/2000/svg" xmlns:xlink="http://www.w3.org/1999/xlink" width="26" zoomAndPan="magnify"
  viewBox="0 0 60.75 67.499998" height="26" preserveAspectRatio="xMidYMid meet" version="1.0">
  <defs>
    <clipPath id="145c69373a">
      <path d="M 0.0976562 34 L 59.902344 34 L 59.902344 66.53125 L 0.0976562 66.53125 Z M 0.0976562 34 "
        clip-rule="nonzero" />
    </clipPath>
  </defs>
  <path fill="#555cb3"
    d="M 18.546875 26.890625 L 17.253906 26.324219 C 16.734375 26.113281 16.113281 26.324219 15.90625 26.839844 C 15.699219 27.359375 15.90625 27.980469 16.421875 28.1875 L 19.324219 29.429688 C 19.636719 29.585938 20.050781 29.535156 20.363281 29.328125 C 20.671875 29.121094 20.828125 28.757812 20.777344 28.394531 L 20.464844 25.441406 C 20.414062 24.871094 19.894531 24.457031 19.324219 24.507812 C 18.753906 24.5625 18.339844 25.078125 18.394531 25.648438 Z M 18.546875 26.890625 "
    fill-opacity="1" fill-rule="nonzero" />
  <path fill="#555cb3"
    d="M 32.179688 17.460938 C 31.710938 18.652344 30.726562 19.585938 29.691406 20.570312 C 28.445312 21.761719 27.097656 23.007812 26.527344 24.871094 C 26.011719 26.582031 25.804688 29.328125 26.890625 31.296875 C 27.515625 32.4375 28.550781 33.214844 29.847656 33.523438 C 30.363281 33.628906 30.933594 33.730469 31.609375 33.730469 C 32.28125 33.730469 33.628906 33.628906 34.664062 33.058594 C 35.390625 32.644531 36.582031 32.4375 38.035156 32.4375 C 39.484375 32.4375 40.988281 32.695312 41.921875 33.058594 C 42.75 33.421875 43.628906 33.730469 44.71875 33.730469 C 45.183594 33.730469 45.703125 33.679688 46.273438 33.523438 C 47.570312 33.214844 48.554688 32.4375 49.226562 31.296875 C 50.367188 29.328125 50.160156 26.582031 49.589844 24.871094 C 49.019531 23.007812 47.726562 21.761719 46.429688 20.570312 C 45.394531 19.585938 44.40625 18.652344 43.941406 17.460938 C 43.839844 17.046875 42.75 14.144531 39.589844 13.160156 C 39.121094 13.003906 38.398438 13.003906 38.035156 13.003906 C 37.671875 13.003906 36.945312 13.003906 36.53125 13.160156 C 33.371094 14.144531 32.332031 17.046875 32.179688 17.460938 Z M 32.179688 17.460938 "
    fill-opacity="1" fill-rule="nonzero" />
  <path fill="#555cb3"
    d="M 41.714844 12.382812 C 42.023438 12.433594 42.285156 12.488281 42.59375 12.488281 C 44.925781 12.488281 47.15625 10.363281 47.878906 7.410156 C 48.347656 5.492188 48.140625 3.523438 47.257812 2.125 C 46.636719 1.085938 45.753906 0.414062 44.71875 0.207031 C 44.40625 0.101562 44.148438 0.0507812 43.839844 0.0507812 C 41.507812 0.0507812 39.277344 2.175781 38.550781 5.128906 C 38.085938 7.046875 38.292969 9.015625 39.175781 10.414062 C 39.796875 11.449219 40.675781 12.125 41.714844 12.382812 Z M 41.714844 12.382812 "
    fill-opacity="1" fill-rule="nonzero" />
  <path fill="#555cb3"
    d="M 33.058594 12.488281 C 33.421875 12.488281 33.785156 12.433594 34.148438 12.332031 C 36.53125 11.554688 37.621094 8.238281 36.6875 4.871094 C 35.804688 2.019531 33.785156 0.0507812 31.609375 0.0507812 C 31.246094 0.0507812 30.882812 0.101562 30.519531 0.207031 C 28.136719 0.984375 27.046875 4.300781 27.980469 7.667969 C 28.859375 10.519531 30.882812 12.488281 33.058594 12.488281 Z M 33.058594 12.488281 "
    fill-opacity="1" fill-rule="nonzero" />
  <path fill="#555cb3"
    d="M 46.429688 15.957031 C 46.585938 16.945312 47.101562 17.667969 47.828125 18.1875 C 48.347656 18.550781 48.96875 18.707031 49.640625 18.707031 C 51.351562 18.707031 53.167969 17.566406 54.359375 15.804688 C 55.394531 14.300781 55.808594 12.539062 55.550781 11.089844 C 55.34375 10.105469 54.875 9.378906 54.152344 8.859375 C 53.632812 8.496094 53.011719 8.34375 52.335938 8.34375 C 50.625 8.34375 48.8125 9.480469 47.621094 11.242188 C 46.585938 12.746094 46.117188 14.507812 46.429688 15.957031 Z M 46.429688 15.957031 "
    fill-opacity="1" fill-rule="nonzero" />
  <path fill="#555cb3"
    d="M 21.65625 16.21875 C 22.746094 18.082031 24.457031 19.222656 26.113281 19.222656 C 26.738281 19.222656 27.359375 19.066406 27.824219 18.707031 C 29.691406 17.511719 30 14.507812 28.445312 11.867188 C 27.410156 10.050781 25.648438 8.859375 24.042969 8.859375 C 23.417969 8.859375 22.796875 9.015625 22.332031 9.378906 C 20.414062 10.570312 20.101562 13.574219 21.65625 16.21875 Z M 21.65625 16.21875 "
    fill-opacity="1" fill-rule="nonzero" />
  <g clip-path="url(#145c69373a)">
    <path fill="#555cb3"
      d="M 59.539062 35.027344 C 59.230469 34.507812 58.660156 34.25 57.984375 34.25 L 52.597656 34.25 C 52.128906 34.25 51.613281 34.355469 51.144531 34.613281 C 50.679688 34.820312 47.207031 39.277344 47.207031 39.277344 L 45.289062 39.277344 C 45.289062 39.433594 45.289062 39.585938 45.289062 39.742188 L 45.289062 41.347656 L 47.726562 41.347656 C 48.035156 41.347656 48.398438 41.195312 48.554688 40.933594 C 48.554688 40.933594 51.921875 36.53125 51.972656 36.53125 C 52.234375 36.425781 52.441406 36.375 52.597656 36.375 L 57.570312 36.375 L 54.304688 43.835938 C 54.152344 44.25 53.632812 44.871094 53.269531 45.132812 L 42.699219 52.386719 C 42.230469 52.699219 41.507812 52.957031 41.144531 52.957031 L 21.035156 52.957031 C 20.828125 52.957031 20.570312 53.007812 20.414062 53.164062 L 18.289062 54.820312 L 7.355469 43.214844 L 14.039062 37.359375 C 14.296875 37.101562 14.972656 36.894531 15.386719 36.894531 L 26.167969 36.894531 C 26.683594 36.894531 27.566406 37.046875 28.03125 37.253906 L 30.777344 38.292969 C 31.453125 38.550781 32.386719 38.914062 33.164062 38.914062 L 39.847656 38.914062 C 40.3125 38.914062 41.144531 39.121094 41.144531 39.792969 L 41.144531 43.058594 C 41.144531 43.679688 40.574219 44.199219 39.847656 44.199219 L 26.425781 44.199219 C 25.855469 44.199219 25.390625 44.664062 25.390625 45.234375 C 25.390625 45.804688 25.855469 46.273438 26.425781 46.273438 L 39.847656 46.273438 C 41.714844 46.273438 43.214844 44.820312 43.214844 43.058594 L 43.214844 39.792969 C 43.214844 38.085938 41.816406 36.839844 39.847656 36.839844 L 33.164062 36.839844 C 32.800781 36.839844 31.96875 36.53125 31.503906 36.375 L 28.757812 35.339844 C 28.03125 35.078125 26.945312 34.871094 26.167969 34.871094 L 15.335938 34.871094 C 14.453125 34.871094 13.3125 35.285156 12.640625 35.855469 L 5.695312 41.867188 C 4.503906 41.296875 3.105469 41.347656 2.171875 42.179688 L 0.566406 43.527344 C 0.152344 43.886719 0.0976562 44.5625 0.460938 44.976562 C 0.824219 45.390625 13.832031 65.703125 14.246094 66.066406 C 14.660156 66.480469 15.335938 66.429688 15.699219 66.015625 L 19.894531 61.660156 C 21.296875 60.210938 21.296875 57.878906 19.949219 56.429688 L 19.742188 56.222656 L 21.449219 54.925781 L 41.144531 54.925781 C 42.128906 54.925781 43.320312 54.355469 43.839844 53.992188 L 54.410156 46.738281 C 55.082031 46.273438 55.859375 45.339844 56.222656 44.5625 L 59.644531 36.6875 C 59.902344 36.167969 59.851562 35.546875 59.539062 35.027344 Z M 13.675781 60.160156 C 13.105469 60.160156 12.640625 59.691406 12.640625 59.121094 C 12.640625 58.554688 13.105469 58.085938 13.675781 58.085938 C 14.246094 58.085938 14.714844 58.554688 14.714844 59.121094 C 14.714844 59.691406 14.246094 60.160156 13.675781 60.160156 Z M 13.675781 60.160156 "
      fill-opacity="1" fill-rule="nonzero" />
  </g>
  <path fill="#555cb3"
    d="M 17.5625 24.351562 C 17.5625 24.492188 17.539062 24.621094 17.484375 24.75 C 17.433594 24.875 17.355469 24.988281 17.261719 25.085938 C 17.164062 25.183594 17.050781 25.257812 16.925781 25.3125 C 16.796875 25.363281 16.664062 25.390625 16.527344 25.390625 C 16.390625 25.390625 16.257812 25.363281 16.128906 25.3125 C 16.003906 25.257812 15.890625 25.183594 15.792969 25.085938 C 15.695312 24.988281 15.621094 24.875 15.570312 24.75 C 15.515625 24.621094 15.492188 24.492188 15.492188 24.351562 C 15.492188 24.214844 15.515625 24.082031 15.570312 23.957031 C 15.621094 23.828125 15.695312 23.71875 15.792969 23.621094 C 15.890625 23.523438 16.003906 23.449219 16.128906 23.394531 C 16.257812 23.34375 16.390625 23.316406 16.527344 23.316406 C 16.664062 23.316406 16.796875 23.34375 16.925781 23.394531 C 17.050781 23.449219 17.164062 23.523438 17.261719 23.621094 C 17.355469 23.71875 17.433594 23.828125 17.484375 23.957031 C 17.539062 24.082031 17.5625 24.214844 17.5625 24.351562 Z M 17.5625 24.351562 "
    fill-opacity="1" fill-rule="nonzero" />
  <path fill="#555cb3"
    d="M 15.699219 20.777344 C 15.699219 20.914062 15.671875 21.046875 15.617188 21.175781 C 15.566406 21.300781 15.492188 21.414062 15.394531 21.511719 C 15.296875 21.609375 15.183594 21.683594 15.058594 21.734375 C 14.929688 21.789062 14.800781 21.8125 14.660156 21.8125 C 14.523438 21.8125 14.390625 21.789062 14.265625 21.734375 C 14.136719 21.683594 14.027344 21.609375 13.929688 21.511719 C 13.832031 21.414062 13.757812 21.300781 13.703125 21.175781 C 13.652344 21.046875 13.625 20.914062 13.625 20.777344 C 13.625 20.640625 13.652344 20.507812 13.703125 20.382812 C 13.757812 20.253906 13.832031 20.140625 13.929688 20.046875 C 14.027344 19.949219 14.136719 19.875 14.265625 19.820312 C 14.390625 19.769531 14.523438 19.742188 14.660156 19.742188 C 14.800781 19.742188 14.929688 19.769531 15.058594 19.820312 C 15.183594 19.875 15.296875 19.949219 15.394531 20.046875 C 15.492188 20.140625 15.566406 20.253906 15.617188 20.382812 C 15.671875 20.507812 15.699219 20.640625 15.699219 20.777344 Z M 15.699219 20.777344 "
    fill-opacity="1" fill-rule="nonzero" />
  <path fill="#555cb3"
    d="M 14.765625 16.839844 C 14.765625 16.976562 14.738281 17.109375 14.6875 17.238281 C 14.632812 17.363281 14.558594 17.476562 14.460938 17.574219 C 14.363281 17.667969 14.253906 17.746094 14.125 17.796875 C 14 17.851562 13.867188 17.875 13.730469 17.875 C 13.589844 17.875 13.460938 17.851562 13.332031 17.796875 C 13.207031 17.746094 13.09375 17.667969 12.996094 17.574219 C 12.898438 17.476562 12.824219 17.363281 12.769531 17.238281 C 12.71875 17.109375 12.691406 16.976562 12.691406 16.839844 C 12.691406 16.703125 12.71875 16.570312 12.769531 16.441406 C 12.824219 16.316406 12.898438 16.203125 12.996094 16.105469 C 13.09375 16.011719 13.207031 15.933594 13.332031 15.882812 C 13.460938 15.828125 13.589844 15.804688 13.730469 15.804688 C 13.867188 15.804688 14 15.828125 14.125 15.882812 C 14.253906 15.933594 14.363281 16.011719 14.460938 16.105469 C 14.558594 16.203125 14.632812 16.316406 14.6875 16.441406 C 14.738281 16.570312 14.765625 16.703125 14.765625 16.839844 Z M 14.765625 16.839844 "
    fill-opacity="1" fill-rule="nonzero" />
  <path fill="#555cb3"
    d="M 14.921875 12.851562 C 14.921875 12.988281 14.894531 13.121094 14.839844 13.246094 C 14.789062 13.375 14.714844 13.484375 14.617188 13.582031 C 14.519531 13.679688 14.40625 13.753906 14.28125 13.808594 C 14.152344 13.859375 14.023438 13.886719 13.882812 13.886719 C 13.746094 13.886719 13.613281 13.859375 13.488281 13.808594 C 13.359375 13.753906 13.25 13.679688 13.152344 13.582031 C 13.054688 13.484375 12.980469 13.375 12.925781 13.246094 C 12.875 13.121094 12.847656 12.988281 12.847656 12.851562 C 12.847656 12.710938 12.875 12.582031 12.925781 12.453125 C 12.980469 12.328125 13.054688 12.214844 13.152344 12.117188 C 13.25 12.019531 13.359375 11.945312 13.488281 11.890625 C 13.613281 11.839844 13.746094 11.8125 13.882812 11.8125 C 14.023438 11.8125 14.152344 11.839844 14.28125 11.890625 C 14.40625 11.945312 14.519531 12.019531 14.617188 12.117188 C 14.714844 12.214844 14.789062 12.328125 14.839844 12.453125 C 14.894531 12.582031 14.921875 12.710938 14.921875 12.851562 Z M 14.921875 12.851562 "
    fill-opacity="1" fill-rule="nonzero" />
  <path fill="#555cb3"
    d="M 16.0625 8.964844 C 16.0625 9.101562 16.035156 9.234375 15.980469 9.359375 C 15.929688 9.488281 15.855469 9.597656 15.757812 9.695312 C 15.660156 9.792969 15.546875 9.867188 15.421875 9.921875 C 15.292969 9.972656 15.160156 10 15.023438 10 C 14.886719 10 14.753906 9.972656 14.628906 9.921875 C 14.5 9.867188 14.386719 9.792969 14.292969 9.695312 C 14.195312 9.597656 14.121094 9.488281 14.066406 9.359375 C 14.015625 9.234375 13.988281 9.101562 13.988281 8.964844 C 13.988281 8.828125 14.015625 8.695312 14.066406 8.566406 C 14.121094 8.441406 14.195312 8.328125 14.292969 8.230469 C 14.386719 8.132812 14.5 8.058594 14.628906 8.007812 C 14.753906 7.953125 14.886719 7.925781 15.023438 7.925781 C 15.160156 7.925781 15.292969 7.953125 15.421875 8.007812 C 15.546875 8.058594 15.660156 8.132812 15.757812 8.230469 C 15.855469 8.328125 15.929688 8.441406 15.980469 8.566406 C 16.035156 8.695312 16.0625 8.828125 16.0625 8.964844 Z M 16.0625 8.964844 "
    fill-opacity="1" fill-rule="nonzero" />
  <path fill="#555cb3"
    d="M 18.082031 5.492188 C 18.082031 5.628906 18.054688 5.761719 18.003906 5.886719 C 17.949219 6.015625 17.875 6.128906 17.777344 6.226562 C 17.679688 6.320312 17.570312 6.398438 17.441406 6.449219 C 17.316406 6.5 17.183594 6.527344 17.046875 6.527344 C 16.90625 6.527344 16.777344 6.5 16.648438 6.449219 C 16.523438 6.398438 16.410156 6.320312 16.3125 6.226562 C 16.214844 6.128906 16.140625 6.015625 16.085938 5.886719 C 16.035156 5.761719 16.007812 5.628906 16.007812 5.492188 C 16.007812 5.355469 16.035156 5.222656 16.085938 5.09375 C 16.140625 4.96875 16.214844 4.855469 16.3125 4.757812 C 16.410156 4.660156 16.523438 4.585938 16.648438 4.535156 C 16.777344 4.480469 16.90625 4.457031 17.046875 4.457031 C 17.183594 4.457031 17.316406 4.480469 17.441406 4.535156 C 17.570312 4.585938 17.679688 4.660156 17.777344 4.757812 C 17.875 4.855469 17.949219 4.96875 18.003906 5.09375 C 18.054688 5.222656 18.082031 5.355469 18.082031 5.492188 Z M 18.082031 5.492188 "
    fill-opacity="1" fill-rule="nonzero" />
  <path fill="#555cb3"
    d="M 20.933594 2.640625 C 20.933594 2.78125 20.90625 2.910156 20.851562 3.039062 C 20.800781 3.164062 20.726562 3.277344 20.628906 3.375 C 20.53125 3.472656 20.417969 3.546875 20.292969 3.597656 C 20.164062 3.652344 20.03125 3.679688 19.894531 3.679688 C 19.757812 3.679688 19.625 3.652344 19.5 3.597656 C 19.371094 3.546875 19.261719 3.472656 19.164062 3.375 C 19.066406 3.277344 18.992188 3.164062 18.9375 3.039062 C 18.886719 2.910156 18.859375 2.78125 18.859375 2.640625 C 18.859375 2.503906 18.886719 2.371094 18.9375 2.246094 C 18.992188 2.117188 19.066406 2.007812 19.164062 1.910156 C 19.261719 1.8125 19.371094 1.738281 19.5 1.683594 C 19.625 1.632812 19.757812 1.605469 19.894531 1.605469 C 20.03125 1.605469 20.164062 1.632812 20.292969 1.683594 C 20.417969 1.738281 20.53125 1.8125 20.628906 1.910156 C 20.726562 2.007812 20.800781 2.117188 20.851562 2.246094 C 20.90625 2.371094 20.933594 2.503906 20.933594 2.640625 Z M 20.933594 2.640625 "
    fill-opacity="1" fill-rule="nonzero" />
</svg>