<svg xmlns="http://www.w3.org/2000/svg" xmlns:xlink="http://www.w3.org/1999/xlink" width="223" zoomAndPan="magnify" viewBox="0 0 167.25 36.000001" height="48" preserveAspectRatio="xMidYMid meet" version="1.0"><defs><g/><clipPath id="294532416d"><path d="M 2.410156 0.578125 L 81.949219 0.578125 L 81.949219 34.148438 L 2.410156 34.148438 Z M 2.410156 0.578125 " clip-rule="nonzero"/></clipPath></defs><g clip-path="url(#294532416d)"><path fill="#5669db" d="M 30.753906 1.605469 L 29.851562 1.605469 C 27.289062 0.578125 24.363281 0.578125 21.796875 1.605469 L 20.898438 1.605469 C 11.359375 1.964844 3.488281 9.375 2.585938 18.835938 C 2.496094 19.996094 3.035156 21.113281 3.9375 21.828125 C 4.65625 22.40625 5.332031 23.03125 5.914062 23.703125 C 7.085938 24.996094 8.074219 26.425781 8.796875 27.988281 C 9.605469 29.726562 11.675781 30.53125 13.429688 29.726562 C 13.519531 29.683594 13.609375 29.640625 13.699219 29.59375 C 14.507812 29.148438 15.410156 28.390625 15.859375 27.050781 C 17.433594 29.550781 19.640625 31.648438 22.160156 33.164062 C 23.285156 33.835938 24.542969 34.148438 25.804688 34.148438 C 27.0625 34.148438 28.324219 33.835938 29.449219 33.164062 C 32.011719 31.648438 34.171875 29.550781 35.746094 27.050781 C 36.242188 28.390625 37.140625 29.148438 37.90625 29.59375 C 38.714844 30.039062 39.660156 30.128906 40.5625 29.90625 C 41.460938 29.640625 42.226562 29.058594 42.675781 28.253906 C 42.71875 28.164062 42.765625 28.078125 42.808594 28.03125 C 43.53125 26.46875 44.519531 24.996094 45.691406 23.746094 C 46.320312 23.078125 46.949219 22.453125 47.667969 21.917969 C 48.613281 21.203125 49.109375 20.085938 49.019531 18.882812 C 48.210938 9.375 40.335938 1.964844 30.753906 1.605469 Z M 46.589844 20.445312 C 45.824219 21.070312 45.058594 21.738281 44.386719 22.496094 C 43.082031 23.925781 42 25.53125 41.191406 27.273438 C 41.191406 27.316406 41.144531 27.363281 41.144531 27.40625 C 40.921875 27.808594 40.5625 28.078125 40.109375 28.210938 C 39.660156 28.34375 39.210938 28.300781 38.804688 28.078125 C 37.726562 27.496094 37.230469 26.46875 37.230469 25.042969 C 37.230469 24.640625 37.320312 24.28125 37.410156 23.925781 C 37.546875 23.480469 37.277344 22.988281 36.828125 22.855469 C 36.375 22.71875 35.882812 22.941406 35.703125 23.34375 C 34.308594 26.78125 31.742188 29.773438 28.503906 31.691406 C 26.835938 32.675781 24.722656 32.675781 23.058594 31.691406 C 19.863281 29.773438 17.300781 26.828125 15.90625 23.34375 C 15.722656 22.898438 15.230469 22.675781 14.78125 22.855469 C 14.328125 22.988281 14.058594 23.480469 14.195312 23.925781 C 14.285156 24.28125 14.375 24.683594 14.375 25.042969 C 14.375 26.515625 13.835938 27.539062 12.800781 28.121094 C 12.753906 28.121094 12.710938 28.164062 12.664062 28.164062 C 11.808594 28.566406 10.773438 28.164062 10.414062 27.316406 C 9.605469 25.578125 8.527344 23.96875 7.222656 22.585938 C 6.546875 21.871094 5.824219 21.15625 5.015625 20.53125 C 4.566406 20.175781 4.296875 19.640625 4.339844 19.105469 C 5.152344 10.535156 12.261719 3.839844 20.898438 3.480469 L 21.980469 3.480469 C 22.113281 3.480469 22.203125 3.4375 22.339844 3.390625 C 24.542969 2.453125 27.109375 2.453125 29.3125 3.390625 C 29.402344 3.4375 29.582031 3.480469 29.71875 3.480469 L 30.707031 3.480469 C 39.347656 3.839844 46.5 10.535156 47.308594 19.058594 C 47.308594 19.550781 47.085938 20.085938 46.589844 20.445312 Z M 31.878906 25.578125 C 31.515625 26.023438 31.113281 26.425781 30.664062 26.78125 C 29.222656 27.898438 27.558594 28.433594 25.847656 28.433594 C 23.597656 28.433594 21.347656 27.453125 19.820312 25.578125 C 19.503906 25.175781 19.59375 24.640625 19.953125 24.328125 C 20.359375 24.015625 20.898438 24.105469 21.214844 24.460938 C 23.238281 27.003906 26.972656 27.40625 29.539062 25.398438 C 29.898438 25.128906 30.210938 24.816406 30.480469 24.460938 C 30.796875 24.058594 31.335938 24.015625 31.742188 24.328125 C 32.101562 24.640625 32.191406 25.21875 31.878906 25.578125 Z M 36.105469 5.980469 C 36.242188 6.160156 39.4375 10.9375 38.132812 19.90625 C 38.085938 20.355469 37.679688 20.667969 37.230469 20.667969 C 37.1875 20.667969 37.140625 20.667969 37.097656 20.667969 C 36.601562 20.578125 36.242188 20.132812 36.332031 19.640625 C 37.546875 11.335938 34.621094 7.007812 34.621094 6.964844 C 34.351562 6.5625 34.441406 5.980469 34.847656 5.714844 C 35.25 5.488281 35.835938 5.578125 36.105469 5.980469 Z M 16.039062 6.917969 C 15.996094 6.964844 13.339844 11.785156 15.183594 19.90625 C 15.273438 20.398438 15.003906 20.84375 14.507812 20.980469 C 14.417969 20.980469 14.375 21.023438 14.328125 21.023438 C 13.925781 21.023438 13.566406 20.757812 13.476562 20.308594 C 11.449219 11.472656 14.375 6.25 14.507812 6.027344 C 14.78125 5.578125 15.320312 5.445312 15.722656 5.714844 C 16.175781 5.9375 16.308594 6.472656 16.039062 6.917969 Z M 24.316406 23.523438 C 24.769531 23.746094 25.21875 23.878906 25.714844 23.878906 C 26.34375 23.878906 26.929688 23.65625 27.511719 23.300781 C 27.78125 23.121094 28.050781 22.898438 28.277344 22.675781 C 29.402344 21.558594 30.527344 19.683594 29.898438 17.898438 C 29.3125 16.425781 27.738281 15.667969 25.441406 15.800781 L 25.082031 15.800781 C 25.039062 15.800781 25.039062 15.800781 24.992188 15.800781 C 22.96875 15.980469 21.664062 17.230469 21.664062 18.882812 C 21.664062 20.445312 22.652344 22.675781 24.316406 23.523438 Z M 25.128906 17.542969 L 25.441406 17.542969 C 26.117188 17.496094 27.78125 17.542969 28.144531 18.480469 C 28.457031 19.371094 27.738281 20.578125 26.972656 21.335938 C 26.792969 21.515625 26.613281 21.648438 26.433594 21.78125 C 25.984375 22.09375 25.53125 22.140625 25.128906 21.917969 C 24.183594 21.425781 23.464844 19.863281 23.464844 18.835938 C 23.464844 17.855469 24.5 17.632812 25.128906 17.542969 Z M 70.300781 24.683594 C 70.617188 24.417969 70.929688 24.148438 71.15625 23.835938 C 71.472656 23.433594 72.054688 23.390625 72.417969 23.703125 C 72.820312 24.015625 72.867188 24.59375 72.550781 24.953125 C 72.191406 25.355469 71.832031 25.753906 71.382812 26.113281 C 69.988281 27.226562 68.320312 27.765625 66.65625 27.765625 C 64.453125 27.765625 62.246094 26.828125 60.761719 24.996094 C 60.449219 24.59375 60.492188 24.058594 60.898438 23.746094 C 61.300781 23.433594 61.84375 23.480469 62.15625 23.878906 C 64.226562 26.292969 67.828125 26.648438 70.300781 24.683594 Z M 81.683594 4.597656 C 81.640625 4.238281 81.460938 3.925781 81.191406 3.792969 C 80.785156 3.527344 80.378906 3.660156 80.246094 3.703125 C 77.769531 4.417969 75.476562 5.625 73.496094 7.277344 C 73.136719 7.585938 72.730469 7.855469 72.28125 8.125 C 72.054688 8.257812 71.785156 8.257812 71.515625 8.210938 C 68.679688 7.410156 65.667969 7.277344 62.742188 7.898438 C 62.515625 7.945312 62.292969 7.988281 62.023438 8.035156 C 61.617188 8.125 61.210938 8.035156 60.851562 7.8125 C 58.601562 6.292969 56.128906 5.132812 53.472656 4.375 C 53.429688 4.375 53.382812 4.328125 53.382812 4.328125 C 53.113281 4.238281 52.527344 3.972656 52.035156 4.375 C 51.496094 4.777344 51.628906 5.445312 51.675781 5.667969 C 51.675781 5.714844 51.675781 5.757812 51.675781 5.757812 C 51.675781 5.757812 51.675781 5.800781 51.675781 5.800781 C 51.808594 8.257812 52.347656 10.625 53.292969 12.898438 C 53.519531 13.480469 53.789062 14.015625 54.148438 14.507812 C 53.339844 16.917969 53.203125 19.328125 53.652344 21.515625 C 53.429688 21.738281 53.25 21.960938 53.070312 22.183594 C 52.753906 22.585938 52.800781 23.121094 53.203125 23.433594 C 53.382812 23.566406 53.5625 23.613281 53.789062 23.613281 C 53.96875 23.613281 54.148438 23.566406 54.285156 23.480469 C 54.328125 23.566406 54.375 23.703125 54.417969 23.792969 C 53.96875 24.148438 53.519531 24.59375 53.113281 25.128906 C 52.800781 25.53125 52.84375 26.066406 53.25 26.378906 C 53.429688 26.515625 53.609375 26.558594 53.832031 26.558594 C 54.105469 26.558594 54.375 26.425781 54.554688 26.246094 C 54.824219 25.933594 55.046875 25.667969 55.320312 25.441406 C 55.992188 26.46875 56.804688 27.40625 57.839844 28.253906 C 60.359375 30.265625 63.507812 31.335938 66.703125 31.335938 C 70.4375 31.335938 73.945312 29.996094 76.285156 27.675781 C 77.003906 26.960938 77.636719 26.203125 78.128906 25.355469 C 78.445312 25.621094 78.714844 25.933594 78.984375 26.246094 C 79.164062 26.46875 79.433594 26.558594 79.703125 26.558594 C 79.886719 26.558594 80.109375 26.515625 80.289062 26.378906 C 80.695312 26.066406 80.738281 25.488281 80.425781 25.128906 C 79.976562 24.59375 79.480469 24.105469 78.984375 23.703125 C 79.03125 23.613281 79.074219 23.523438 79.121094 23.390625 C 79.300781 23.566406 79.523438 23.65625 79.75 23.65625 C 79.929688 23.65625 80.15625 23.613281 80.335938 23.480469 C 80.738281 23.167969 80.785156 22.585938 80.46875 22.230469 C 80.199219 21.917969 79.929688 21.648438 79.660156 21.382812 C 79.976562 19.371094 79.75 17.230469 78.941406 15.265625 C 80.378906 13.390625 81.324219 11.160156 81.730469 8.835938 C 81.820312 7.363281 81.863281 5.980469 81.683594 4.597656 Z M 79.839844 8.4375 C 79.480469 10.578125 78.582031 12.585938 77.230469 14.285156 C 77.183594 14.328125 77.183594 14.371094 77.140625 14.417969 C 76.871094 14.820312 76.871094 15.308594 77.09375 15.710938 C 77.726562 17.09375 77.949219 18.570312 77.90625 20.042969 C 74.664062 18.121094 71.15625 18.613281 70.976562 18.65625 C 70.480469 18.746094 70.167969 19.195312 70.210938 19.683594 C 70.300781 20.175781 70.75 20.53125 71.246094 20.445312 C 71.292969 20.445312 74.800781 19.953125 77.636719 22.050781 C 77.589844 22.273438 77.5 22.496094 77.410156 22.71875 C 74.351562 21.15625 71.15625 21.558594 70.976562 21.605469 C 70.480469 21.695312 70.167969 22.140625 70.210938 22.628906 C 70.300781 23.121094 70.75 23.480469 71.246094 23.390625 C 71.292969 23.390625 74.035156 23.03125 76.644531 24.371094 C 76.195312 25.128906 75.65625 25.800781 75.027344 26.425781 C 73 28.433594 69.941406 29.550781 66.703125 29.550781 C 63.914062 29.550781 61.121094 28.566406 58.964844 26.871094 C 58.0625 26.15625 57.34375 25.308594 56.804688 24.417969 C 59.414062 22.988281 62.246094 23.390625 62.292969 23.390625 C 62.789062 23.480469 63.238281 23.121094 63.328125 22.628906 C 63.417969 22.140625 63.058594 21.695312 62.5625 21.605469 C 62.382812 21.558594 59.097656 21.113281 55.992188 22.808594 C 55.902344 22.585938 55.8125 22.363281 55.769531 22.183594 C 58.601562 19.996094 62.203125 20.488281 62.292969 20.488281 C 62.789062 20.578125 63.238281 20.21875 63.328125 19.730469 C 63.417969 19.238281 63.058594 18.792969 62.5625 18.703125 C 62.382812 18.65625 58.648438 18.167969 55.363281 20.265625 C 55.183594 18.613281 55.363281 16.828125 55.992188 15.042969 C 56.171875 14.597656 56.082031 14.105469 55.8125 13.703125 C 55.5 13.257812 55.273438 12.808594 55.046875 12.320312 C 54.285156 10.398438 53.789062 8.390625 53.609375 6.292969 C 55.859375 7.007812 57.972656 8.035156 59.90625 9.328125 C 60.671875 9.863281 61.617188 10.042969 62.472656 9.863281 C 62.742188 9.820312 62.96875 9.773438 63.238281 9.730469 C 65.847656 9.195312 68.546875 9.285156 71.109375 10 C 71.832031 10.222656 72.597656 10.132812 73.226562 9.773438 C 73.765625 9.460938 74.261719 9.148438 74.710938 8.75 C 76.285156 7.453125 78.085938 6.425781 80.066406 5.757812 C 80.019531 6.605469 79.976562 7.542969 79.839844 8.4375 Z M 66.207031 24.191406 C 66.25 24.191406 66.25 24.191406 66.296875 24.191406 L 66.433594 24.191406 C 66.523438 24.191406 66.566406 24.191406 66.65625 24.191406 C 67.917969 24.191406 68.816406 23.703125 69.132812 22.808594 C 69.445312 21.871094 69.132812 20.800781 68.230469 19.953125 C 68.097656 19.820312 67.960938 19.730469 67.78125 19.59375 C 67.152344 19.148438 66.386719 19.105469 65.710938 19.417969 C 64.722656 19.953125 64.136719 21.203125 64.136719 22.183594 C 64.136719 23.253906 64.945312 24.058594 66.207031 24.191406 Z M 66.566406 20.980469 C 66.613281 20.933594 66.65625 20.933594 66.792969 21.023438 C 66.882812 21.070312 66.925781 21.15625 67.015625 21.203125 C 67.332031 21.515625 67.558594 21.917969 67.464844 22.183594 C 67.421875 22.273438 67.152344 22.40625 66.523438 22.363281 L 66.386719 22.363281 C 66.25 22.363281 65.9375 22.273438 65.9375 22.140625 C 65.9375 21.738281 66.25 21.15625 66.566406 20.980469 Z M 66.566406 20.980469 " fill-opacity="1" fill-rule="nonzero"/></g><g fill="#5669db" fill-opacity="1"><g transform="translate(90.676551, 22.71693)"><g><path d="M 14.140625 -12.171875 L 14.140625 0 L 12.140625 0 L 12.140625 -8.34375 L 8.421875 0 L 7.046875 0 L 3.3125 -8.34375 L 3.3125 0 L 1.3125 0 L 1.3125 -12.171875 L 3.46875 -12.171875 L 7.734375 -2.625 L 12 -12.171875 Z M 14.140625 -12.171875 "/></g></g></g><g fill="#5669db" fill-opacity="1"><g transform="translate(106.123425, 22.71693)"><g><path d="M 2.328125 -10.9375 C 1.960938 -10.9375 1.65625 -11.054688 1.40625 -11.296875 C 1.164062 -11.546875 1.046875 -11.847656 1.046875 -12.203125 C 1.046875 -12.566406 1.164062 -12.867188 1.40625 -13.109375 C 1.65625 -13.359375 1.960938 -13.484375 2.328125 -13.484375 C 2.679688 -13.484375 2.976562 -13.359375 3.21875 -13.109375 C 3.46875 -12.867188 3.59375 -12.566406 3.59375 -12.203125 C 3.59375 -11.847656 3.46875 -11.546875 3.21875 -11.296875 C 2.976562 -11.054688 2.679688 -10.9375 2.328125 -10.9375 Z M 3.3125 -9.65625 L 3.3125 0 L 1.3125 0 L 1.3125 -9.65625 Z M 3.3125 -9.65625 "/></g></g></g><g fill="#5669db" fill-opacity="1"><g transform="translate(110.74698, 22.71693)"><g><path d="M 0.640625 -4.875 C 0.640625 -5.84375 0.84375 -6.695312 1.25 -7.4375 C 1.65625 -8.1875 2.203125 -8.769531 2.890625 -9.1875 C 3.585938 -9.601562 4.359375 -9.8125 5.203125 -9.8125 C 5.960938 -9.8125 6.625 -9.660156 7.1875 -9.359375 C 7.757812 -9.066406 8.210938 -8.695312 8.546875 -8.25 L 8.546875 -9.65625 L 10.5625 -9.65625 L 10.5625 0 L 8.546875 0 L 8.546875 -1.4375 C 8.210938 -0.976562 7.75 -0.597656 7.15625 -0.296875 C 6.570312 0.00390625 5.910156 0.15625 5.171875 0.15625 C 4.335938 0.15625 3.578125 -0.0546875 2.890625 -0.484375 C 2.203125 -0.910156 1.65625 -1.503906 1.25 -2.265625 C 0.84375 -3.035156 0.640625 -3.90625 0.640625 -4.875 Z M 8.546875 -4.828125 C 8.546875 -5.492188 8.40625 -6.070312 8.125 -6.5625 C 7.851562 -7.050781 7.492188 -7.425781 7.046875 -7.6875 C 6.609375 -7.945312 6.132812 -8.078125 5.625 -8.078125 C 5.113281 -8.078125 4.632812 -7.953125 4.1875 -7.703125 C 3.738281 -7.453125 3.378906 -7.082031 3.109375 -6.59375 C 2.835938 -6.113281 2.703125 -5.539062 2.703125 -4.875 C 2.703125 -4.207031 2.835938 -3.617188 3.109375 -3.109375 C 3.378906 -2.609375 3.738281 -2.226562 4.1875 -1.96875 C 4.644531 -1.707031 5.125 -1.578125 5.625 -1.578125 C 6.132812 -1.578125 6.609375 -1.703125 7.046875 -1.953125 C 7.492188 -2.210938 7.851562 -2.585938 8.125 -3.078125 C 8.40625 -3.578125 8.546875 -4.160156 8.546875 -4.828125 Z M 8.546875 -4.828125 "/></g></g></g><g fill="#5669db" fill-opacity="1"><g transform="translate(122.621111, 22.71693)"><g><path d="M 10.046875 -9.65625 L 10.046875 0 L 8.0625 0 L 8.0625 -1.140625 C 7.738281 -0.742188 7.320312 -0.429688 6.8125 -0.203125 C 6.3125 0.0234375 5.773438 0.140625 5.203125 0.140625 C 4.441406 0.140625 3.757812 -0.015625 3.15625 -0.328125 C 2.5625 -0.648438 2.085938 -1.117188 1.734375 -1.734375 C 1.390625 -2.347656 1.21875 -3.09375 1.21875 -3.96875 L 1.21875 -9.65625 L 3.203125 -9.65625 L 3.203125 -4.28125 C 3.203125 -3.414062 3.414062 -2.75 3.84375 -2.28125 C 4.28125 -1.820312 4.875 -1.59375 5.625 -1.59375 C 6.375 -1.59375 6.96875 -1.820312 7.40625 -2.28125 C 7.84375 -2.75 8.0625 -3.414062 8.0625 -4.28125 L 8.0625 -9.65625 Z M 10.046875 -9.65625 "/></g></g></g><g fill="#5669db" fill-opacity="1"><g transform="translate(133.987351, 22.71693)"><g><path d="M 0.640625 -4.875 C 0.640625 -5.84375 0.84375 -6.695312 1.25 -7.4375 C 1.65625 -8.1875 2.203125 -8.769531 2.890625 -9.1875 C 3.585938 -9.601562 4.359375 -9.8125 5.203125 -9.8125 C 5.960938 -9.8125 6.625 -9.660156 7.1875 -9.359375 C 7.757812 -9.066406 8.210938 -8.695312 8.546875 -8.25 L 8.546875 -9.65625 L 10.5625 -9.65625 L 10.5625 0 L 8.546875 0 L 8.546875 -1.4375 C 8.210938 -0.976562 7.75 -0.597656 7.15625 -0.296875 C 6.570312 0.00390625 5.910156 0.15625 5.171875 0.15625 C 4.335938 0.15625 3.578125 -0.0546875 2.890625 -0.484375 C 2.203125 -0.910156 1.65625 -1.503906 1.25 -2.265625 C 0.84375 -3.035156 0.640625 -3.90625 0.640625 -4.875 Z M 8.546875 -4.828125 C 8.546875 -5.492188 8.40625 -6.070312 8.125 -6.5625 C 7.851562 -7.050781 7.492188 -7.425781 7.046875 -7.6875 C 6.609375 -7.945312 6.132812 -8.078125 5.625 -8.078125 C 5.113281 -8.078125 4.632812 -7.953125 4.1875 -7.703125 C 3.738281 -7.453125 3.378906 -7.082031 3.109375 -6.59375 C 2.835938 -6.113281 2.703125 -5.539062 2.703125 -4.875 C 2.703125 -4.207031 2.835938 -3.617188 3.109375 -3.109375 C 3.378906 -2.609375 3.738281 -2.226562 4.1875 -1.96875 C 4.644531 -1.707031 5.125 -1.578125 5.625 -1.578125 C 6.132812 -1.578125 6.609375 -1.703125 7.046875 -1.953125 C 7.492188 -2.210938 7.851562 -2.585938 8.125 -3.078125 C 8.40625 -3.578125 8.546875 -4.160156 8.546875 -4.828125 Z M 8.546875 -4.828125 "/></g></g></g><g fill="#5669db" fill-opacity="1"><g transform="translate(145.861481, 22.71693)"><g><path d="M 10.046875 -9.65625 L 10.046875 0 L 8.0625 0 L 8.0625 -1.140625 C 7.738281 -0.742188 7.320312 -0.429688 6.8125 -0.203125 C 6.3125 0.0234375 5.773438 0.140625 5.203125 0.140625 C 4.441406 0.140625 3.757812 -0.015625 3.15625 -0.328125 C 2.5625 -0.648438 2.085938 -1.117188 1.734375 -1.734375 C 1.390625 -2.347656 1.21875 -3.09375 1.21875 -3.96875 L 1.21875 -9.65625 L 3.203125 -9.65625 L 3.203125 -4.28125 C 3.203125 -3.414062 3.414062 -2.75 3.84375 -2.28125 C 4.28125 -1.820312 4.875 -1.59375 5.625 -1.59375 C 6.375 -1.59375 6.96875 -1.820312 7.40625 -2.28125 C 7.84375 -2.75 8.0625 -3.414062 8.0625 -4.28125 L 8.0625 -9.65625 Z M 10.046875 -9.65625 "/></g></g></g></svg>