<svg xmlns="http://www.w3.org/2000/svg" xmlns:xlink="http://www.w3.org/1999/xlink" width="776" zoomAndPan="magnify" viewBox="0 0 582 332.250003" height="443" preserveAspectRatio="xMidYMid meet" version="1.0"><defs><clipPath id="90088f8228"><path d="M 314 0.230469 L 348 0.230469 L 348 45 L 314 45 Z M 314 0.230469 " clip-rule="nonzero"/></clipPath><clipPath id="e944bbaab8"><path d="M 1.355469 312 L 486.261719 312 L 486.261719 315 L 1.355469 315 Z M 1.355469 312 " clip-rule="nonzero"/></clipPath><clipPath id="2d51e1d305"><path d="M 129 131 L 278 131 L 278 331.5 L 129 331.5 Z M 129 131 " clip-rule="nonzero"/></clipPath><clipPath id="cfeb9342ae"><path d="M 344 168.976562 L 417 168.976562 L 417 238 L 344 238 Z M 344 168.976562 " clip-rule="nonzero"/></clipPath><clipPath id="89c5ef402c"><path d="M 197.929688 312 L 581.0625 312 L 581.0625 314 L 197.929688 314 Z M 197.929688 312 " clip-rule="nonzero"/></clipPath><clipPath id="126fabcda5"><path d="M 354 254 L 384 254 L 384 316.394531 L 354 316.394531 Z M 354 254 " clip-rule="nonzero"/></clipPath><clipPath id="9997a11d47"><path d="M 384 253 L 413 253 L 413 316.394531 L 384 316.394531 Z M 384 253 " clip-rule="nonzero"/></clipPath></defs><path fill="#f2f2f2" d="M 81.484375 234.199219 C 79.148438 234.453125 76.597656 234.828125 73.886719 235.382812 C 62.390625 237.726562 62.152344 245.539062 62.253906 247.332031 L 62.175781 247.28125 C 61.019531 249.140625 60.296875 251.019531 59.859375 252.789062 L 59.332031 228.839844 C 59.671875 228.128906 59.980469 227.324219 60.238281 226.5 C 61.101562 229.152344 62.511719 231.65625 63.726562 231.492188 C 65.308594 231.277344 65.996094 226.617188 65.703125 223.308594 C 67.714844 225.902344 71.097656 228.671875 72.375 227.816406 C 73.394531 227.136719 72.789062 224.324219 71.675781 221.765625 C 73.996094 223.164062 76.566406 224.085938 77.363281 223.195312 C 78.453125 221.984375 75.84375 217.847656 73.4375 215.535156 C 76.65625 215.835938 80.753906 215.324219 81.019531 213.855469 C 81.242188 212.648438 78.804688 211.125 76.195312 210.140625 C 78.816406 209.449219 81.265625 208.246094 81.183594 207.054688 C 81.089844 205.636719 77.453125 204.691406 74.3125 204.546875 C 76.679688 202.691406 78.855469 200.128906 78.191406 198.972656 C 77.578125 197.90625 74.734375 198.320312 72.109375 199.257812 C 73.664062 197.035156 74.753906 194.53125 73.925781 193.671875 C 72.886719 192.605469 69.210938 194.449219 66.703125 196.484375 C 67.191406 193.3125 66.945312 189.308594 65.523438 188.945312 C 64.335938 188.640625 62.648438 190.972656 61.492188 193.507812 C 60.984375 190.847656 59.949219 188.316406 58.753906 188.316406 C 57.054688 188.316406 55.675781 193.449219 55.675781 196.792969 C 55.675781 196.980469 55.683594 197.15625 55.691406 197.328125 C 55.519531 197.128906 55.324219 196.921875 55.101562 196.707031 C 52.707031 194.378906 48.070312 191.792969 46.886719 193.011719 C 46.054688 193.871094 47.144531 196.375 48.699219 198.597656 C 46.074219 197.660156 43.230469 197.246094 42.617188 198.3125 C 41.796875 199.742188 45.308594 203.316406 48.164062 205.046875 C 47.992188 205.027344 47.8125 205.011719 47.617188 204.996094 C 44.289062 204.769531 39.078125 205.796875 38.964844 207.496094 C 38.882812 208.6875 41.332031 209.890625 43.953125 210.582031 C 41.34375 211.5625 38.90625 213.089844 39.128906 214.296875 C 39.398438 215.765625 43.492188 216.277344 46.710938 215.976562 C 44.304688 218.285156 41.699219 222.425781 42.785156 223.636719 C 43.582031 224.527344 46.152344 223.605469 48.472656 222.207031 C 47.359375 224.761719 46.753906 227.574219 47.777344 228.257812 C 49.125 229.160156 52.820312 226.019531 54.769531 223.316406 C 54.570312 226.625 55.363281 231.167969 56.929688 231.347656 C 57.585938 231.421875 58.28125 230.722656 58.910156 229.644531 L 57.132812 255.386719 C 56.71875 258.382812 59.375 260.339844 59.609375 261.574219 L 59.992188 279.007812 C 59.5625 277.765625 58.980469 276.496094 58.195312 275.234375 L 58.117188 275.285156 C 58.214844 273.492188 57.976562 265.679688 46.480469 263.335938 C 43.769531 262.78125 41.222656 262.402344 38.886719 262.152344 C 36.128906 261.855469 35.050781 265.636719 37.542969 266.855469 C 41.152344 268.625 44.546875 270.851562 46.3125 273.488281 C 50.835938 280.230469 57.085938 276.335938 57.976562 275.730469 C 58.96875 277.382812 59.617188 279.050781 60.03125 280.632812 L 60.234375 289.890625 C 60.183594 290.109375 60.148438 290.234375 60.144531 290.242188 L 60.242188 290.269531 L 60.734375 312.675781 L 65.304688 312.640625 L 63.667969 289.738281 C 63.941406 288.503906 64.789062 284.292969 63.667969 279.921875 L 62.035156 261.929688 C 62.03125 261.914062 62.128906 262.402344 62.035156 261.929688 L 59.902344 254.859375 C 60.214844 252.671875 60.933594 250.210938 62.394531 247.777344 C 63.28125 248.382812 69.53125 252.28125 74.054688 245.535156 C 75.824219 242.898438 79.21875 240.671875 82.828125 238.902344 C 85.316406 237.683594 84.242188 233.902344 81.484375 234.199219 Z M 60.613281 287.210938 L 60.527344 283.292969 C 60.703125 284.773438 60.691406 286.109375 60.613281 287.210938 Z M 60.613281 287.210938 " fill-opacity="1" fill-rule="nonzero"/><path fill="#f2f2f2" d="M 431.117188 234.199219 C 428.78125 234.453125 426.234375 234.828125 423.523438 235.382812 C 412.027344 237.726562 411.785156 245.539062 411.886719 247.332031 L 411.808594 247.28125 C 410.652344 249.140625 409.929688 251.019531 409.492188 252.789062 L 408.964844 228.839844 C 409.304688 228.128906 409.617188 227.324219 409.875 226.5 C 410.734375 229.152344 412.144531 231.65625 413.359375 231.492188 C 414.941406 231.277344 415.632812 226.617188 415.335938 223.308594 C 417.347656 225.902344 420.730469 228.671875 422.007812 227.816406 C 423.027344 227.136719 422.421875 224.324219 421.308594 221.765625 C 423.628906 223.164062 426.199219 224.085938 426.996094 223.195312 C 428.085938 221.984375 425.476562 217.847656 423.074219 215.535156 C 426.292969 215.835938 430.386719 215.324219 430.65625 213.855469 C 430.875 212.648438 428.4375 211.125 425.832031 210.140625 C 428.449219 209.449219 430.902344 208.246094 430.820312 207.054688 C 430.722656 205.636719 427.085938 204.691406 423.949219 204.546875 C 426.316406 202.691406 428.488281 200.128906 427.824219 198.972656 C 427.214844 197.90625 424.371094 198.320312 421.746094 199.257812 C 423.296875 197.035156 424.390625 194.53125 423.558594 193.671875 C 422.523438 192.605469 418.847656 194.449219 416.339844 196.484375 C 416.828125 193.3125 416.582031 189.308594 415.160156 188.945312 C 413.96875 188.640625 412.285156 190.972656 411.128906 193.507812 C 410.617188 190.847656 409.582031 188.316406 408.390625 188.316406 C 406.691406 188.316406 405.3125 193.449219 405.3125 196.792969 C 405.3125 196.980469 405.316406 197.15625 405.324219 197.328125 C 405.15625 197.128906 404.960938 196.921875 404.734375 196.707031 C 402.339844 194.378906 397.703125 191.792969 396.519531 193.011719 C 395.6875 193.871094 396.78125 196.375 398.332031 198.597656 C 395.707031 197.660156 392.863281 197.246094 392.253906 198.3125 C 391.433594 199.742188 394.941406 203.316406 397.796875 205.046875 C 397.625 205.027344 397.445312 205.011719 397.253906 204.996094 C 393.921875 204.769531 388.714844 205.796875 388.597656 207.496094 C 388.515625 208.6875 390.96875 209.890625 393.585938 210.582031 C 390.980469 211.5625 388.542969 213.089844 388.761719 214.296875 C 389.03125 215.765625 393.125 216.277344 396.34375 215.976562 C 393.941406 218.285156 391.332031 222.425781 392.421875 223.636719 C 393.21875 224.527344 395.789062 223.605469 398.109375 222.207031 C 396.996094 224.761719 396.390625 227.574219 397.410156 228.257812 C 398.757812 229.160156 402.457031 226.019531 404.40625 223.316406 C 404.207031 226.625 404.996094 231.167969 406.566406 231.347656 C 407.222656 231.421875 407.917969 230.722656 408.542969 229.644531 L 406.765625 255.386719 C 406.351562 258.382812 409.007812 260.339844 409.246094 261.574219 L 409.628906 279.007812 C 409.195312 277.765625 408.613281 276.496094 407.828125 275.234375 L 407.75 275.285156 C 407.851562 273.492188 407.613281 265.679688 396.117188 263.335938 C 393.40625 262.78125 390.855469 262.402344 388.519531 262.152344 C 385.761719 261.855469 384.6875 265.636719 387.175781 266.855469 C 390.785156 268.625 394.179688 270.851562 395.949219 273.488281 C 400.472656 280.230469 406.722656 276.335938 407.609375 275.730469 C 408.601562 277.382812 409.253906 279.050781 409.664062 280.632812 L 409.867188 289.890625 C 409.816406 290.109375 409.785156 290.234375 409.78125 290.242188 L 409.875 290.269531 L 410.367188 312.675781 L 414.9375 312.640625 L 413.304688 289.738281 C 413.578125 288.503906 414.421875 284.292969 413.304688 279.921875 L 411.667969 261.929688 C 411.664062 261.914062 411.761719 262.402344 411.667969 261.929688 L 409.539062 254.859375 C 409.847656 252.671875 410.566406 250.210938 412.027344 247.777344 C 412.917969 248.382812 419.164062 252.28125 423.6875 245.535156 C 425.457031 242.898438 428.851562 240.671875 432.460938 238.902344 C 434.953125 237.683594 433.875 233.902344 431.117188 234.199219 Z M 410.25 287.210938 L 410.164062 283.292969 C 410.335938 284.773438 410.328125 286.109375 410.25 287.210938 Z M 410.25 287.210938 " fill-opacity="1" fill-rule="nonzero"/><path fill="#ffb6b6" d="M 360.1875 160.878906 L 358.046875 109.753906 C 358.046875 109.753906 355.636719 79.398438 353.714844 68.800781 C 351.789062 58.199219 338.792969 61.089844 338.792969 61.089844 L 340.238281 91.445312 L 346.46875 122.507812 L 351.316406 164.804688 C 351.066406 166.027344 350.925781 167.359375 350.925781 168.753906 C 350.925781 174.679688 353.398438 179.484375 356.445312 179.484375 C 359.496094 179.484375 361.96875 174.679688 361.96875 168.753906 C 361.96875 165.636719 361.28125 162.839844 360.1875 160.878906 Z M 360.1875 160.878906 " fill-opacity="1" fill-rule="nonzero"/><path fill="#ffb6b6" d="M 255.90625 147.632812 C 258.183594 144.914062 260.910156 143.070312 263.363281 142.359375 L 292.175781 109.753906 C 292.175781 109.753906 294.582031 79.398438 296.507812 68.800781 C 298.433594 58.199219 311.425781 61.089844 311.425781 61.089844 L 309.984375 91.445312 L 301.800781 124.207031 L 268.085938 152.859375 C 267.496094 153.933594 266.773438 155.007812 265.910156 156.039062 C 261.808594 160.929688 256.242188 163.011719 253.480469 160.691406 C 250.71875 158.367188 251.804688 152.523438 255.90625 147.632812 Z M 255.90625 147.632812 " fill-opacity="1" fill-rule="nonzero"/><path fill="#ffb6b6" d="M 319.300781 56.996094 L 322.644531 44.132812 L 335.664062 43.507812 L 339.5625 61.238281 Z M 319.300781 56.996094 " fill-opacity="1" fill-rule="nonzero"/><path fill="#000000" d="M 319.300781 56.996094 L 322.644531 44.132812 L 335.664062 43.507812 L 339.5625 61.238281 Z M 319.300781 56.996094 " fill-opacity="0.098" fill-rule="nonzero"/><path fill="#ffb6b6" d="M 286.050781 267.730469 L 273.855469 267.03125 L 275.457031 304.5 L 283.71875 304.972656 Z M 286.050781 267.730469 " fill-opacity="1" fill-rule="nonzero"/><path fill="#2f2e41" d="M 274.398438 292.652344 L 278.632812 294.585938 L 278.628906 297.15625 C 278.628906 297.15625 279.648438 294.183594 285.132812 293.53125 L 285.789062 296.023438 C 285.789062 296.023438 287.914062 298.46875 287.550781 302.886719 L 286.152344 314.726562 L 282.019531 314.632812 L 281.351562 306.394531 C 281.351562 306.394531 280.210938 304.523438 274.964844 313.40625 C 274.964844 313.40625 269.183594 314.863281 260.230469 311.859375 C 259 311.449219 258.144531 310.296875 258.160156 309 C 258.171875 308.28125 258.449219 307.617188 259.347656 307.382812 C 261.632812 306.777344 263.867188 307.542969 265.34375 305.71875 C 266.816406 303.890625 274.398438 292.652344 274.398438 292.652344 Z M 274.398438 292.652344 " fill-opacity="1" fill-rule="nonzero"/><path fill="#ffb6b6" d="M 351.503906 267.730469 L 339.308594 267.03125 L 340.910156 304.5 L 349.175781 304.972656 Z M 351.503906 267.730469 " fill-opacity="1" fill-rule="nonzero"/><path fill="#2f2e41" d="M 339.851562 292.652344 L 344.085938 294.585938 L 344.082031 297.15625 C 344.082031 297.15625 345.105469 294.183594 350.589844 293.53125 L 351.242188 296.023438 C 351.242188 296.023438 353.371094 298.46875 353.003906 302.886719 L 351.609375 314.726562 L 347.472656 314.632812 L 346.804688 306.394531 C 346.804688 306.394531 345.664062 304.523438 340.417969 313.40625 C 340.417969 313.40625 334.636719 314.863281 325.683594 311.859375 C 324.453125 311.449219 323.601562 310.296875 323.617188 309 C 323.625 308.28125 323.90625 307.617188 324.804688 307.382812 C 327.089844 306.777344 329.320312 307.542969 330.796875 305.71875 C 332.273438 303.890625 339.851562 292.652344 339.851562 292.652344 Z M 339.851562 292.652344 " fill-opacity="1" fill-rule="nonzero"/><path fill="#ffb6b6" d="M 343.75 37.253906 C 343.75 38.203125 343.660156 39.144531 343.472656 40.074219 C 343.289062 41.003906 343.015625 41.910156 342.652344 42.785156 C 342.289062 43.664062 341.84375 44.496094 341.316406 45.285156 C 340.792969 46.074219 340.191406 46.804688 339.523438 47.476562 C 338.851562 48.144531 338.121094 48.746094 337.335938 49.273438 C 336.546875 49.800781 335.714844 50.246094 334.839844 50.609375 C 333.960938 50.972656 333.058594 51.246094 332.128906 51.429688 C 331.199219 51.617188 330.261719 51.707031 329.3125 51.707031 C 328.363281 51.707031 327.425781 51.617188 326.496094 51.429688 C 325.566406 51.246094 324.664062 50.972656 323.789062 50.609375 C 322.910156 50.246094 322.078125 49.800781 321.292969 49.273438 C 320.503906 48.746094 319.773438 48.144531 319.101562 47.476562 C 318.433594 46.804688 317.835938 46.074219 317.308594 45.285156 C 316.78125 44.496094 316.335938 43.664062 315.972656 42.785156 C 315.609375 41.910156 315.335938 41.003906 315.152344 40.074219 C 314.96875 39.144531 314.875 38.203125 314.875 37.253906 C 314.875 36.304688 314.96875 35.367188 315.152344 34.433594 C 315.335938 33.503906 315.609375 32.601562 315.972656 31.722656 C 316.335938 30.847656 316.78125 30.015625 317.308594 29.222656 C 317.835938 28.433594 318.433594 27.707031 319.101562 27.035156 C 319.773438 26.363281 320.503906 25.765625 321.292969 25.238281 C 322.078125 24.710938 322.910156 24.265625 323.789062 23.902344 C 324.664062 23.539062 325.566406 23.265625 326.496094 23.078125 C 327.425781 22.894531 328.363281 22.800781 329.3125 22.800781 C 330.261719 22.800781 331.199219 22.894531 332.128906 23.078125 C 333.058594 23.265625 333.960938 23.539062 334.839844 23.902344 C 335.714844 24.265625 336.546875 24.710938 337.335938 25.238281 C 338.121094 25.765625 338.851562 26.363281 339.523438 27.035156 C 340.191406 27.707031 340.792969 28.433594 341.316406 29.222656 C 341.84375 30.015625 342.289062 30.847656 342.652344 31.722656 C 343.015625 32.601562 343.289062 33.503906 343.472656 34.433594 C 343.660156 35.367188 343.75 36.304688 343.75 37.253906 Z M 343.75 37.253906 " fill-opacity="1" fill-rule="nonzero"/><g clip-path="url(#90088f8228)"><path fill="#2f2e41" d="M 337.5 39.65625 C 337.5 39.65625 331.152344 29.257812 324.796875 30.40625 C 318.445312 31.554688 315.132812 32.589844 315.132812 32.589844 C 315.132812 32.589844 312.542969 24.300781 321.230469 20.324219 C 321.230469 20.324219 308.9375 10.019531 322.039062 3.40625 C 335.144531 -3.207031 343.296875 3.203125 343.296875 3.203125 C 343.296875 3.203125 354.140625 12.410156 342.117188 20.929688 C 342.117188 20.929688 352.523438 32.796875 342.015625 44.132812 C 342.015625 44.132812 343.871094 35.5 341.34375 37.269531 C 338.820312 39.039062 337.5 39.65625 337.5 39.65625 Z M 337.5 39.65625 " fill-opacity="1" fill-rule="nonzero"/></g><path fill="#5971ea" d="M 339.035156 57.960938 L 319.300781 55.550781 L 304.140625 67.835938 C 304.140625 67.835938 296.601562 88.867188 302.214844 101.5625 C 302.351562 101.867188 302.457031 123 302.457031 123 L 344.382812 123 C 344.382812 123 344.339844 108.617188 345.941406 103.40625 C 346.171875 102.660156 346.433594 102.105469 346.734375 101.804688 C 349.140625 99.394531 354.917969 83.976562 352.027344 77.230469 C 349.140625 70.488281 339.035156 57.960938 339.035156 57.960938 Z M 339.035156 57.960938 " fill-opacity="1" fill-rule="nonzero"/><path fill="#2f2e41" d="M 302.214844 122.039062 L 275.746094 206.351562 L 269.96875 272.835938 L 286.09375 272.835938 L 299.808594 211.167969 L 318.699219 175.472656 L 337.351562 277.65625 L 353.625 277.65625 L 353.230469 139.382812 L 344.347656 122.039062 Z M 302.214844 122.039062 " fill-opacity="1" fill-rule="nonzero"/><g clip-path="url(#e944bbaab8)"><path fill="#3f3d56" d="M 1.355469 312.792969 L 486.261719 312.792969 L 486.261719 314.273438 L 1.355469 314.273438 Z M 1.355469 312.792969 " fill-opacity="1" fill-rule="nonzero"/></g><g clip-path="url(#2d51e1d305)"><path fill="#3f3d56" d="M 249.917969 139.101562 C 245.109375 131.355469 233.894531 129.53125 225.566406 133.226562 C 217.238281 136.921875 211.480469 144.804688 207.566406 153.039062 C 203.652344 161.273438 201.191406 170.148438 197.167969 178.332031 C 185.335938 202.410156 161.367188 218.132812 146.289062 240.320312 C 134.960938 256.992188 128.960938 277.234375 129.375 297.390625 C 129.535156 305.113281 130.78125 313.234375 135.59375 319.269531 C 142.738281 328.230469 155.390625 330.066406 166.777344 331.246094 C 173.394531 331.929688 181.515625 331.910156 184.921875 326.191406 C 186.269531 323.929688 171.789062 316.039062 172.019531 313.417969 C 173.273438 299.257812 189.273438 290.269531 190.527344 276.109375 C 192.496094 285.976562 189.976562 296.160156 190.371094 306.210938 C 190.769531 316.261719 195.71875 327.632812 205.550781 329.710938 C 208.585938 330.351562 212.011719 329.90625 214.308594 327.824219 C 216.609375 325.742188 217.28125 321.808594 215.234375 319.476562 C 217.332031 321.621094 220.871094 322.179688 223.523438 320.78125 C 226.179688 319.386719 227.726562 316.152344 227.152344 313.207031 C 226.730469 311.039062 225.332031 309.21875 224.121094 307.371094 C 217.574219 297.375 215.867188 284.347656 219.621094 273 C 226.257812 252.9375 248.050781 239.839844 251.742188 219.03125 C 254.480469 203.578125 246.660156 186.066406 254.960938 172.75 C 258.703125 166.75 265.050781 162.96875 270.117188 158.039062 C 275.183594 153.105469 279.144531 145.5625 276.246094 139.113281 L 250.355469 139.082031 " fill-opacity="1" fill-rule="nonzero"/></g><path fill="#2f2e41" d="M 170.066406 316.21875 C 169.421875 316.21875 168.761719 316.046875 168.121094 315.703125 C 166.652344 314.914062 165.542969 313.355469 165.296875 311.726562 C 164.890625 309.023438 166.175781 306.398438 167.210938 304.289062 C 170.039062 298.515625 172.832031 292.347656 173.246094 285.933594 C 173.695312 278.933594 170.859375 272.445312 166.019531 269.402344 C 162.421875 267.144531 157.621094 266.5625 152.5 267.769531 C 147.960938 268.835938 143.886719 271.019531 139.40625 273.550781 C 139.050781 273.753906 138.601562 273.628906 138.398438 273.273438 C 138.199219 272.917969 138.324219 272.464844 138.679688 272.265625 C 143.089844 269.769531 147.4375 267.4375 152.160156 266.328125 C 157.671875 265.03125 162.871094 265.675781 166.804688 268.152344 C 172.097656 271.476562 175.207031 278.496094 174.722656 286.03125 C 174.292969 292.710938 171.429688 299.035156 168.539062 304.941406 C 167.546875 306.964844 166.421875 309.261719 166.761719 311.507812 C 166.9375 312.667969 167.765625 313.832031 168.820312 314.398438 C 169.335938 314.675781 170.121094 314.925781 170.9375 314.542969 C 171.308594 314.371094 171.746094 314.53125 171.917969 314.902344 C 172.089844 315.273438 171.929688 315.714844 171.5625 315.886719 C 171.085938 316.109375 170.582031 316.21875 170.066406 316.21875 Z M 170.066406 316.21875 " fill-opacity="1" fill-rule="nonzero"/><path fill="#2f2e41" d="M 226.710938 138.59375 C 225.746094 141.246094 227.035156 144.222656 228.824219 146.40625 C 230.617188 148.589844 232.914062 150.347656 234.492188 152.691406 C 237.796875 157.601562 237.300781 164.3125 234.761719 169.664062 C 232.222656 175.011719 227.9375 179.296875 223.738281 183.464844 C 224.050781 181.675781 223.148438 179.871094 221.914062 178.539062 C 220.683594 177.207031 219.136719 176.21875 217.757812 175.035156 C 211.347656 169.535156 209.34375 159.511719 213.144531 151.960938 " fill-opacity="1" fill-rule="nonzero"/><path fill="#3f3d56" d="M 139.15625 296.476562 C 133.726562 295.8125 129.140625 300.703125 123.71875 301.453125 C 117.453125 302.320312 111.691406 297.355469 108.902344 291.671875 C 106.113281 285.988281 105.398438 279.535156 103.480469 273.5 C 101.5625 267.464844 97.863281 261.355469 91.832031 259.4375 C 89.304688 258.632812 86.441406 258.675781 84.09375 259.910156 C 81.742188 261.144531 80.019531 263.667969 80.078125 266.324219 C 80.152344 269.589844 82.65625 272.207031 84.171875 275.101562 C 86.585938 279.710938 86.511719 285.164062 87.578125 290.257812 C 90.140625 302.496094 100.085938 312.878906 112.199219 315.949219 C 118.460938 317.539062 125.472656 317.175781 130.894531 313.664062 C 136.320312 310.152344 139.628906 303.078125 137.621094 296.929688 " fill-opacity="1" fill-rule="nonzero"/><path fill="#3f3d56" d="M 439.605469 314.519531 L 378.574219 312.785156 C 378.574219 312.785156 383.167969 285.332031 368.429688 277.714844 C 358.382812 272.515625 349.46875 248.242188 352.003906 231.722656 C 352.039062 231.503906 352.074219 231.285156 352.113281 231.070312 C 353.398438 223.675781 357.070312 217.949219 364.097656 216.390625 C 386.8125 211.367188 403.023438 215.261719 403.023438 215.261719 C 403.023438 215.261719 406.773438 215.308594 412.335938 216.351562 C 412.535156 216.386719 412.730469 216.425781 412.929688 216.46875 C 428.671875 219.550781 457.765625 230.523438 459.023438 269.476562 C 460.757812 323 439.605469 314.511719 439.605469 314.511719 Z M 439.605469 314.519531 " fill-opacity="1" fill-rule="nonzero"/><path fill="#5971ea" d="M 412.335938 216.359375 C 412.230469 219.148438 411.597656 221.925781 410.441406 224.5625 C 408.042969 230.03125 403.667969 234.207031 398.132812 236.324219 C 381.542969 242.664062 362.183594 236.375 352.390625 229.550781 C 352.351562 229.769531 351.578125 233.859375 351.542969 234.078125 C 355.878906 237.042969 377.09375 239.898438 381.117188 239.898438 C 387.230469 239.898438 393.113281 238.886719 398.347656 236.882812 C 404.035156 234.707031 408.527344 230.414062 410.988281 224.800781 C 412.167969 222.117188 412.8125 219.304688 412.929688 216.46875 C 412.730469 216.425781 412.535156 216.386719 412.335938 216.351562 Z M 412.335938 216.359375 " fill-opacity="1" fill-rule="nonzero"/><g clip-path="url(#cfeb9342ae)"><path fill="#3f3d56" d="M 416.847656 219.914062 L 407.121094 195.476562 C 407.121094 195.476562 418.796875 175.480469 409.621094 173.261719 C 400.449219 171.035156 390.996094 182.976562 390.996094 182.976562 C 390.996094 182.976562 373.484375 176.867188 366.816406 181.867188 C 366.816406 181.867188 355.695312 166.3125 349.027344 169.367188 C 342.355469 172.425781 351.398438 194.441406 351.398438 194.441406 C 351.398438 194.441406 337.632812 214.632812 348.195312 226.292969 C 358.757812 237.960938 398.507812 247.402344 416.851562 219.910156 Z M 416.847656 219.914062 " fill-opacity="1" fill-rule="nonzero"/></g><g clip-path="url(#89c5ef402c)"><path fill="#3f3d56" d="M 198.410156 313.804688 L 581.011719 313.804688 L 581.011719 312.941406 L 198.410156 312.941406 C 198.175781 312.941406 197.980469 313.136719 197.980469 313.375 C 197.980469 313.609375 198.175781 313.804688 198.410156 313.804688 Z M 198.410156 313.804688 " fill-opacity="1" fill-rule="nonzero"/></g><path fill="#3f3d56" d="M 437.710938 299.894531 C 441.023438 301.367188 444.484375 302.867188 448.105469 302.726562 C 451.730469 302.582031 455.539062 300.25 456.101562 296.675781 C 456.398438 294.824219 455.820312 292.847656 456.527344 291.117188 C 457.480469 288.789062 460.550781 287.886719 462.9375 288.683594 C 465.324219 289.480469 467.078125 291.542969 468.335938 293.71875 C 470.691406 297.792969 471.632812 303.148438 469.109375 307.121094 C 466.921875 310.5625 462.773438 312.125 458.914062 313.460938 C 453.773438 315.238281 448.039062 317 443.054688 314.816406 C 438.046875 312.617188 435.316406 306.269531 437.171875 301.128906 " fill-opacity="1" fill-rule="nonzero"/><path fill="#5971ea" d="M 382.914062 208.929688 C 382.914062 208.929688 376.925781 206.535156 373.039062 209.527344 L 377.53125 216.40625 C 377.53125 216.40625 382.917969 208.933594 382.917969 208.933594 Z M 382.914062 208.929688 " fill-opacity="1" fill-rule="nonzero"/><path fill="#3f3d56" d="M 351.492188 240.316406 L 362.5625 299.21875 C 362.5625 299.21875 345.804688 316.261719 367.351562 315.957031 C 388.894531 315.660156 382.613281 304.597656 382.613281 304.597656 L 375.726562 253.472656 " fill-opacity="1" fill-rule="nonzero"/><g clip-path="url(#126fabcda5)"><path fill="#2f2e41" d="M 366.808594 316.394531 C 360.972656 316.394531 357.441406 315.058594 356.3125 312.417969 C 354.253906 307.605469 360.953125 300.277344 362.101562 299.070312 L 354.65625 255.039062 L 355.507812 254.894531 L 363.023438 299.359375 L 362.867188 299.515625 C 362.792969 299.59375 355.128906 307.464844 357.105469 312.074219 C 358.121094 314.445312 361.558594 315.605469 367.347656 315.523438 C 375.390625 315.410156 380.574219 313.726562 382.34375 310.652344 C 383.9375 307.886719 382.253906 304.835938 382.234375 304.804688 L 382.199219 304.734375 L 382.183594 304.652344 L 377.398438 269.074219 L 378.25 268.957031 L 383.03125 304.457031 C 383.316406 304.996094 384.804688 308.101562 383.097656 311.074219 C 381.144531 314.480469 375.847656 316.269531 367.359375 316.386719 C 367.175781 316.386719 366.992188 316.386719 366.8125 316.386719 Z M 366.808594 316.394531 " fill-opacity="1" fill-rule="nonzero"/></g><path fill="#3f3d56" d="M 379.617188 240.316406 L 390.691406 299.21875 C 390.691406 299.21875 373.933594 316.261719 395.476562 315.957031 C 417.023438 315.660156 410.738281 304.597656 410.738281 304.597656 L 403.855469 253.472656 " fill-opacity="1" fill-rule="nonzero"/><g clip-path="url(#9997a11d47)"><path fill="#2f2e41" d="M 394.933594 316.394531 C 389.097656 316.394531 385.570312 315.058594 384.441406 312.417969 C 382.382812 307.617188 389.070312 300.292969 390.226562 299.074219 L 385.777344 275.375 L 386.628906 275.214844 L 391.15625 299.355469 L 390.996094 299.515625 C 390.917969 299.59375 383.257812 307.464844 385.234375 312.074219 C 386.246094 314.445312 389.691406 315.609375 395.472656 315.523438 C 403.523438 315.410156 408.710938 313.726562 410.476562 310.644531 C 412.066406 307.871094 410.382812 304.835938 410.363281 304.804688 L 410.320312 304.734375 L 403.429688 253.523438 L 404.28125 253.410156 L 411.152344 304.457031 C 411.4375 304.996094 412.925781 308.101562 411.222656 311.074219 C 409.269531 314.480469 403.972656 316.269531 395.484375 316.386719 C 395.296875 316.386719 395.117188 316.386719 394.933594 316.386719 Z M 394.933594 316.394531 " fill-opacity="1" fill-rule="nonzero"/></g></svg>